<svg width="74" height="103" viewBox="0 0 74 103" fill="none" xmlns="http://www.w3.org/2000/svg">
<path d="M64.6395 28.4762C67.1692 28.4762 69.3886 27.5636 71.229 25.7731C73.0693 23.9756 73.9998 21.7771 73.9998 19.233C73.9998 16.6889 73.0693 14.4835 71.229 12.686C69.3886 10.8955 67.1692 9.98291 64.6395 9.98291C62.1099 9.98291 59.9112 10.8955 58.1191 12.686C56.327 14.4835 55.424 16.682 55.424 19.2261C55.424 21.7702 56.3338 23.9687 58.1191 25.7662C59.9112 27.5636 62.103 28.4693 64.6395 28.4693V28.4762Z" fill="#F9A01B"/>
<path d="M65.0579 38.304C60.8798 38.304 59.0476 40.6475 58.2564 42.5888C57.7776 43.5664 57.5346 44.6411 57.5346 45.7781V63.6454C57.3264 65.5243 56.2368 69.9062 50.754 69.9062C44.0567 69.9062 43.8971 63.3264 43.8901 63.0491V7.57541C43.8901 7.51301 44.0359 1.15514 38.0187 0.184472C36.6861 -0.106729 35.2842 -0.0443284 34.1044 0.309272C31.1964 1.01647 29.9055 3.05488 29.3434 4.62181C28.9686 5.53008 28.7743 6.53542 28.7743 7.60315V51.0267C28.5799 52.9333 27.5181 57.3638 21.9728 57.3638C15.2616 57.3638 15.102 50.7771 15.102 50.4997V20.7834C15.102 20.7834 15.102 20.1802 14.9354 19.3482L14.9076 19.2026L14.5676 19.2789L14.8938 19.1333C14.866 19.0016 14.8313 18.8698 14.7966 18.7242C14.7758 18.641 14.748 18.5509 14.7272 18.4677C14.1373 16.464 12.6868 13.9541 9.14724 13.3786C8.0368 13.1498 6.85696 13.1568 5.74652 13.4202C3.59505 13.8432 1.93632 15.105 0.964683 17.0464C0.360882 18.1002 0.0416271 19.2997 0.00692584 20.5962C-1.4402e-05 20.7349 2.45564e-10 20.8181 2.45564e-10 20.8181V97.1611C2.45564e-10 99.9969 2.30416 102.299 5.14272 102.299H68.0561C70.5545 102.299 72.595 100.267 72.588 97.8059C72.6088 97.5979 72.6227 97.383 72.6227 97.1611V45.7781C72.6227 44.5093 72.3312 43.3376 71.7552 42.3045C70.9085 40.4811 69.0693 38.3109 65.0648 38.3109L65.0579 38.304Z" fill="#F8AA00"/>
</svg>
