<svg width="284" height="41" viewBox="0 0 284 41" fill="none" xmlns="http://www.w3.org/2000/svg">
<g clip-path="url(#clip0_120_530)">
<path d="M36.6592 4.42666H54.646V10.2656H48.423V36.6772H42.6549V10.2656H36.6592V4.42666ZM62.5233 4.42666V17.7791H72.3644V4.42666H78.1324V36.6772H72.3644V23.618H62.5233V36.6772H56.6929V4.42666H62.5233ZM85.8444 10.2656H97.3809V4.42666H80.0555V36.6772H97.3809V30.7753H85.8444V23.6175H94.445V17.7786H85.8444V10.2656ZM117.642 22.9901V30.7753H121.198C122.273 30.7753 123.245 30.3148 123.927 29.6242C124.609 28.8916 125.064 27.971 125.064 26.8827C125.064 25.7943 124.609 24.8106 123.927 24.1201C123.245 23.3875 122.335 22.9901 121.198 22.9901H117.642ZM117.642 10.3282V17.0254H120.97C121.942 17.0254 122.728 16.6907 123.306 16.0418C123.927 15.4766 124.257 14.6813 124.257 13.6976C124.257 12.714 123.927 11.9187 123.306 11.2908C122.686 10.663 121.88 10.3282 120.97 10.3282H117.642ZM117.642 4.42666V4.4683H120.97C123.472 4.4683 125.684 5.45196 127.421 7.16821C129.075 8.84242 130.088 11.1235 130.088 13.6981C130.088 16.0001 129.241 18.1138 127.835 19.7674L128.062 19.9558C129.799 21.7137 130.874 24.1832 130.874 26.8831C130.874 29.583 129.799 31.9688 128.062 33.7477C126.305 35.5266 123.865 36.615 121.198 36.615H117.642V36.6776H111.874V4.42666H117.642ZM138.978 10.2651H150.515V4.42666H133.21V36.6772H150.515V30.7753H138.978V23.6175H147.579V17.7786H138.978V10.2651ZM171.851 9.40721C170.775 7.52358 169.37 6.20516 167.612 5.34724C165.793 4.4683 163.767 4.13354 161.782 4.42624C159.57 4.69834 157.812 5.74466 156.468 7.10513C155.042 8.65401 154.153 10.6003 153.966 12.6093C153.863 14.0534 154.153 15.4976 154.773 16.9207C155.393 18.2391 156.179 19.3485 157.419 20.3738C158.329 21.0644 159.177 21.6296 160.148 21.9854C160.872 22.2785 161.678 22.5712 162.526 22.739C163.146 22.9064 163.642 23.0738 164.283 23.3042C164.676 23.4716 165.131 23.66 165.462 24.0578C166.144 24.4557 166.475 25.0415 166.702 25.5436C166.93 26.0668 166.992 26.59 166.992 27.2178C166.868 28.1388 166.537 28.892 165.979 29.4573C165.359 30.0851 164.677 30.4409 163.767 30.6083C162.795 30.7757 161.72 30.6083 160.769 30.1478C159.963 29.792 159.342 29.1641 158.846 28.3062C158.66 28.0341 158.619 27.7204 158.557 27.5526C158.495 27.3852 158.391 27.0921 158.329 26.6947L152.623 27.4899C152.727 28.2642 152.851 28.892 153.016 29.3946C153.244 30.0225 153.409 30.483 153.74 31.1109C154.774 33.1198 156.469 34.564 158.268 35.4219C160.252 36.3845 162.464 36.6776 164.491 36.3845C166.827 36.1124 168.75 35.0661 170.156 33.5172C171.686 31.8641 172.533 29.9173 172.76 27.6783C172.885 26.1295 172.657 24.6857 171.975 23.1368C171.355 21.6927 170.383 20.5 169.08 19.4533C168.233 18.6996 167.323 18.1975 166.434 17.8417C165.628 17.507 164.842 17.3396 164.056 17.1091C163.415 16.9207 162.919 16.7533 162.299 16.5233C161.906 16.3559 161.452 16.1255 161.038 15.8328C160.542 15.3723 160.19 14.9118 160.025 14.5143C159.798 14.1165 159.756 13.5933 159.798 13.0912C159.86 12.3376 160.149 11.6891 160.645 11.1866C161.162 10.6634 161.782 10.3286 162.527 10.2029C163.374 10.0982 164.222 10.2656 165.132 10.6634C165.793 11.0612 166.372 11.5213 166.765 12.2123L171.851 9.40805V9.40721ZM174.455 4.42624H192.463V10.2651H186.24V36.6768H180.451V10.2656L174.455 10.2651V4.42624Z" fill="white"/>
<path d="M225.493 26.873C224.726 27.6497 224.166 28.2166 223.543 28.3008C223.128 28.3428 223.087 27.4189 223.087 26.6001C223.087 23.4716 225.535 13.4558 227.028 11.2299C225.867 10.6209 224.705 10.2639 223.46 10.2639C222.444 10.2639 221.572 10.6209 220.93 11.3136C219.893 10.4948 218.565 10.1798 217.009 10.1798C210.558 10.1798 204.501 19.1038 204.356 26.9146C204.356 30.2534 205.476 32.6471 208.67 32.6471H209.127C211.761 32.521 214.686 29.9594 217.693 25.0251C217.569 25.8649 217.486 27.3348 217.486 28.3008C217.486 31.2194 218.855 32.6051 221.054 32.6051C223.896 32.6051 228.148 28.1746 228.148 25.2139C228.148 24.9831 228.107 24.8569 227.941 24.8569C227.547 24.8569 226.738 25.5079 225.493 26.8726V26.873ZM215.122 24.6475C213.566 26.9992 212.363 28.3849 211.512 28.3849C210.662 28.3849 210.289 27.6918 210.205 26.264C210.205 20.9937 213.4 13.2245 216.615 13.2245C217.839 13.2245 219.374 13.9176 219.809 15.5762C218.938 18.0541 217.175 21.6443 215.121 24.647L215.122 24.6475ZM239.038 36.8471C239.038 35.5241 237.586 34.8314 235.554 34.4534C235.554 34.2645 235.782 33.7393 235.906 33.4874C235.823 33.4453 235.678 33.4453 235.47 33.4453C234.869 33.4453 234.267 33.7393 233.873 34.2221C233.458 34.6632 233.271 35.3138 233.375 35.9228C234.703 36.2378 235.47 36.3219 235.47 37.4136C235.47 38.1904 233.915 38.6736 232.151 38.6736C231.55 38.6736 230.658 38.5264 230.347 38.4427C230.222 38.7156 230.098 38.9255 230.098 39.4087C230.098 40.4167 231.343 40.5004 232.628 40.5004C236.715 40.5004 239.038 38.8418 239.038 36.8467L239.038 36.8471ZM244.473 25.6976C242.627 27.9025 239.826 29.3092 236.985 29.3092C234.827 29.3092 233.956 27.2094 233.956 24.732C233.956 17.4039 236.466 12.9735 239.826 12.9735C241.444 12.9735 242.15 13.7923 242.668 16.144C244.846 15.4509 246.443 14.233 246.443 12.7005C246.443 10.9998 244.846 10.139 241.403 10.139C233.976 10.139 227.733 17.761 227.733 25.8242C227.733 30.4014 230.181 32.6904 234.952 32.6904C238.353 32.6904 244.804 30.5696 244.804 27.0841C244.804 26.6013 244.721 26.1602 244.472 25.6984L244.473 25.6976ZM266.896 26.8734C266.149 27.6502 265.589 28.2171 264.946 28.3012C264.552 28.3432 264.51 27.4193 264.51 26.6005C264.51 23.472 266.937 13.4563 268.431 11.2303C267.269 10.6213 266.108 10.2643 264.863 10.2643C263.867 10.2643 262.975 10.6213 262.332 11.314C261.295 10.4952 259.968 10.1802 258.412 10.1802C251.961 10.1802 245.925 19.1042 245.759 26.9151C245.759 30.2538 246.879 32.6475 250.094 32.6475H250.53C253.164 32.5214 256.089 29.9598 259.096 25.0255C258.972 25.8654 258.889 27.3352 258.889 28.3012C258.889 31.2198 260.258 32.6055 262.457 32.6055C265.299 32.6055 269.551 28.175 269.551 25.2144C269.551 24.9835 269.51 24.8573 269.344 24.8573C268.95 24.8573 268.141 25.5083 266.896 26.873L266.896 26.8734ZM256.524 24.6479C254.969 26.9996 253.765 28.3853 252.936 28.3853C252.106 28.3853 251.691 27.6922 251.608 26.2645C251.608 20.9942 254.803 13.225 258.018 13.225C259.263 13.225 260.777 13.918 261.212 15.5767C260.341 18.0545 258.578 21.6447 256.524 24.6475V24.6479ZM278.802 26.8318C277.994 27.6085 277.205 28.2595 276.832 28.2595C276.438 28.2595 276.396 27.3356 276.396 26.5168C276.396 25.3409 276.666 23.0313 276.998 21.6035C277.247 20.4697 278.118 17.3203 278.719 15.0522C278.927 14.3171 279.03 13.6665 279.155 13.0155C279.321 12.1336 279.155 11.4406 278.678 10.9157C278.201 10.3909 277.351 10.2647 276.666 10.2647C275.442 10.2647 274.073 10.5797 272.663 11.1046C273.078 11.7135 273.264 12.3645 273.264 13.1413C273.264 13.7502 273.223 14.527 273.078 15.3252C272.788 16.837 272.269 19.8187 271.584 22.2545C270.796 25.2993 270.713 27.9029 270.796 28.7848C270.942 31.3043 272.228 32.5222 274.364 32.5222C276.501 32.5222 279.674 30.0027 280.794 27.3777C281.251 26.3069 281.438 25.5928 281.438 25.1727C281.438 24.3749 280.566 24.8998 278.803 26.8314L278.802 26.8318ZM272.559 6.73716C272.559 7.21995 273.596 7.55597 274.239 7.43022C276.707 6.96846 279.404 5.96041 281.042 5.03646C282.64 4.25971 283.531 3.33577 283.531 2.5586C283.531 1.34069 282.038 0.500854 278.989 0.500854C277.392 2.64271 275.753 4.42751 272.828 6.33806C272.621 6.4432 272.559 6.56894 272.559 6.73716Z" fill="white"/>
<path d="M21.7002 13.0559C22.5299 13.0559 23.2556 12.7552 23.8585 12.1626C24.4613 11.5688 24.7666 10.8409 24.7666 9.99976C24.7666 9.15866 24.4613 8.43111 23.8585 7.83688C23.2556 7.24391 22.5299 6.94363 21.7002 6.94363C20.8706 6.94363 20.151 7.24475 19.5648 7.83814C18.9786 8.43195 18.6812 9.15908 18.6812 9.99976C18.6812 10.8404 18.9782 11.568 19.5648 12.1614C20.151 12.7548 20.8693 13.0559 21.7002 13.0559Z" fill="#F6A000"/>
<path d="M21.6958 16.2668C20.336 16.2668 19.7403 17.0389 19.4831 17.6798C19.3273 18.0028 19.2484 18.356 19.2484 18.7299L19.2492 24.6188C19.1798 25.2392 18.8255 26.6821 17.0424 26.6821C14.8646 26.6821 14.8114 24.5137 14.8106 24.4225V6.14081C14.8114 6.11978 14.8584 4.02545 12.9012 3.70458C12.4675 3.60743 12.0121 3.62846 11.6283 3.74537C10.6819 3.97751 10.2627 4.64913 10.0795 5.1664C9.9565 5.46625 9.89418 5.79638 9.89418 6.1488V20.4596C9.8302 21.0875 9.4858 22.5472 7.68234 22.5472C5.49917 22.5472 5.44807 20.3755 5.44682 20.2843V10.4897C5.44682 10.4817 5.44557 10.2899 5.39281 10.0174L5.38284 9.96822L5.27275 9.99303L5.37786 9.94509C5.3683 9.90219 5.35833 9.85804 5.34628 9.81135C5.3388 9.78276 5.33132 9.75458 5.32302 9.72809C5.13149 9.06825 4.66038 8.24145 3.50751 8.0501C3.14566 7.97398 2.76262 7.97819 2.40118 8.06398C1.70073 8.20402 1.16148 8.6191 0.844912 9.25791C0.648822 9.60655 0.544129 10.0014 0.534158 10.4279C0.53125 10.4741 0.53125 10.5011 0.53125 10.5019V35.6633C0.53125 36.5969 1.28155 37.3564 2.20384 37.3564H22.6654C23.4789 37.3564 24.1407 36.6865 24.1399 35.8752C24.1473 35.8063 24.1523 35.736 24.1523 35.6633V18.7295C24.1523 18.3123 24.0568 17.9246 23.8711 17.5839C23.5965 16.983 22.9965 16.2668 21.6954 16.2668H21.6958Z" fill="#F6A000"/>
</g>
<defs>
<clipPath id="clip0_120_530">
<rect width="283" height="40" fill="white" transform="translate(0.53125 0.5)"/>
</clipPath>
</defs>
</svg>
